{"title":"Dragonheart.3.The.Sorcerers.Curse.2015.WEBRip.480p.x264-VYTO","uid":11702803,"size":375364505,"categoryP":"video","categoryS":"movies","magnet":"?xt=urn:btih:2e92ab1d0cecc3ad5c6a30140874f5e7cab8fde7&amp;dn=Dragonheart.3.The.Sorcerers.Curse.2015.WEBRip.480p.x264-VYTO&amp;tr=udp%3A%2F%2Ftracker.openbittorrent.com%3A80&amp;tr=udp%3A%2F%2Fopen.demonii.com%3A1337&amp;tr=udp%3A%2F%2Ftracker.coppersurfer.tk%3A6969&amp;tr=udp%3A%2F%2Fexodus.desync.com%3A6969","seeders":2,"leechers":2,"uploader":"ValidusVyto","files":6,"time":1423987084,"description":"Dragonheart.3.The.Sorcerers.Curse.2015.WEBRip.480p.x264-VYTO\n\n\nGenre: Adventure | Fantasy\nIMDb: http://www.imdb.com/title/tt3829170/\n\nFormat                      : MPEG-4\nFile size                   : 351 MiB\nDuration                    : 1h 37mn\nOverall bit rate            : 506 Kbps\n\nVideo\nFormat                      : AVC\nBit rate                    : 471 Kbps\nWidth                       : 720 pixels\nHeight                      : 400 pixels\nDisplay aspect ratio        : 16:9\nFrame rate mode             : Constant\nFrame rate                  : 23.976 fps\nBit depth                   : 8 bits\nStream size                 : 327 MiB (93%)\nWriting library             : x264 core 144\n\nAudio\nFormat                      : AAC\nBit rate mode               : Variable\nBit rate                    : 32.0 Kbps\nChannel(s)                  : 2 channels\nChannel positions           : Front: L R\nSampling rate               : 48.0 KHz\nStream size                 : 22.2 MiB (6%)\nLanguage                    : English\n\nSubtitle                    : Yes(English)\nSource                      : 720p.WEB-DL.DD5.1.H.264-PLAYNOW \n &lt;a href=&quot;\nhttp://someimage.com/QPlRK6P&quot; rel=&quot;nofollow&quot; target=&quot;_NEW&quot;&gt;\nhttp://someimage.com/QPlRK6P&lt;/a&gt; &lt;a href=&quot;\nhttp://someimage.com/8m8Ly3v&quot; rel=&quot;nofollow&quot; target=&quot;_NEW&quot;&gt;\nhttp://someimage.com/8m8Ly3v&lt;/a&gt; &lt;a href=&quot;\nhttp://someimage.com/73T7BrJ&quot; rel=&quot;nofollow&quot; target=&quot;_NEW&quot;&gt;\nhttp://someimage.com/73T7BrJ&lt;/a&gt; &lt;a href=&quot;\nhttp://someimage.com/yxZOX4o&quot; rel=&quot;nofollow&quot; target=&quot;_NEW&quot;&gt;\nhttp://someimage.com/yxZOX4o&lt;/a&gt; &lt;a href=&quot;\nhttp://someimage.com/ppLNupn&quot; rel=&quot;nofollow&quot; target=&quot;_NEW&quot;&gt;\nhttp://someimage.com/ppLNupn&lt;/a&gt; &lt;a href=&quot;\nhttp://someimage.com/D9kHgR9&quot; rel=&quot;nofollow&quot; target=&quot;_NEW&quot;&gt;\nhttp://someimage.com/D9kHgR9&lt;/a&gt; &lt;a href=&quot;\nhttp://someimage.com/SyOhlxO&quot; rel=&quot;nofollow&quot; target=&quot;_NEW&quot;&gt;\nhttp://someimage.com/SyOhlxO&lt;/a&gt; &lt;a href=&quot;\nhttp://someimage.com/AxYbX6v&quot; rel=&quot;nofollow&quot; target=&quot;_NEW&quot;&gt;\nhttp://someimage.com/AxYbX6v&lt;/a&gt; &lt;a href=&quot;\nhttp://someimage.com/nBpibYI&quot; rel=&quot;nofollow&quot; target=&quot;_NEW&quot;&gt;\nhttp://someimage.com/nBpibYI&lt;/a&gt;\n\n----------------------------------------------------------------------------------------------------\n\n\nEncoder Notes: Looking For Early Access To Anything You Can Provide DVDScr, R5, DVDR, BluRay, Direct\nAudio, Music Releases and Seedboxes. If You Got anything to offer please contact us.\n\nWe require dedicated servers, so as to do more and fast releases of movies.\nSupport us by sending us LC - LezHMTo2cYaiztCCcWxB4cNFVNVpWW3GSx","torrent":{"xt":"urn:btih:2e92ab1d0cecc3ad5c6a30140874f5e7cab8fde7","amp;dn":"Dragonheart.3.The.Sorcerers.Curse.2015.WEBRip.480p.x264-VYTO","amp;tr":["udp%3A%2F%2Ftracker.openbittorrent.com%3A80","udp%3A%2F%2Fopen.demonii.com%3A1337","udp%3A%2F%2Ftracker.coppersurfer.tk%3A6969","udp%3A%2F%2Fexodus.desync.com%3A6969"],"infoHash":"2e92ab1d0cecc3ad5c6a30140874f5e7cab8fde7","infoHashBuffer":{"type":"Buffer","data":[46,146,171,29,12,236,195,173,92,106,48,20,8,116,245,231,202,184,253,231]},"announce":[],"urlList":[]}}